<?xml version="1.0" encoding="UTF-8"?>
<svg width="22px" height="22px" viewBox="0 0 22 22" version="1.1" xmlns="http://www.w3.org/2000/svg" xmlns:xlink="http://www.w3.org/1999/xlink">
    <title>Icon — Facebook</title>
    <g id="Layout" stroke="none" stroke-width="1" fill="none" fill-rule="evenodd">
        <g id="Layout-—-Home" transform="translate(-1342.000000, -11.000000)" fill="#FFFFFF" fill-rule="nonzero">
            <g id="Header-—-Secondary">
                <g id="Social" transform="translate(1342.000000, 11.000000)">
                    <g id="Icon-—-Facebook">
                        <path d="M22,10.9785575 C22,4.91619458 17.0742035,0 11,0 C4.92579652,0 0,4.91619458 0,10.9785575 C0,17.0409204 4.92579652,21.957115 11,21.957115 C11.064621,21.957115 11.1289062,21.9557749 11.1933594,21.9546022 L11.1933594,13.4082602 L8.83007812,13.4082602 L8.83007812,10.6594329 L11.1933594,10.6594329 L11.1933594,8.63663499 C11.1933594,6.29069201 12.6282806,5.01385841 14.7250214,5.01385841 C15.7290802,5.01385841 16.5921478,5.08857212 16.84375,5.12190851 L16.84375,7.57372382 L15.3979187,7.57372382 C14.2572327,7.57372382 14.0363464,8.11481176 14.0363464,8.90868665 L14.0363464,10.6594329 L16.763855,10.6594329 L16.4083557,13.4082602 L14.0363464,13.4082602 L14.0363464,21.5329557 C18.6341705,20.2174251 22,15.9897356 22,10.9785575 Z" id="Path"></path>
                    </g>
                </g>
            </g>
        </g>
    </g>
</svg>