<?xml version="1.0" encoding="UTF-8"?>
<svg width="22px" height="22px" viewBox="0 0 22 22" version="1.1" xmlns="http://www.w3.org/2000/svg" xmlns:xlink="http://www.w3.org/1999/xlink">
    <title>Icon — Linkedin</title>
    <g id="Layout" stroke="none" stroke-width="1" fill="none" fill-rule="evenodd">
        <g id="Layout-—-Home" transform="translate(-1402.000000, -11.000000)" fill="#FFFFFF" fill-rule="nonzero">
            <g id="Header-—-Secondary">
                <g id="Social" transform="translate(1342.000000, 11.000000)">
                    <g id="Icon-—-Linkedin" transform="translate(60.000000, 0.000000)">
                        <path d="M11,0 C4.92579652,0 0,4.92579652 0,11 C0,17.0742035 4.92579652,22 11,22 C17.0742035,22 22,17.0742035 22,11 C22,4.92579652 17.0742035,0 11,0 Z M7.80352783,16.6289062 L5.12452699,16.6289062 L5.12452699,8.56907653 L7.80352783,8.56907653 L7.80352783,16.6289062 Z M6.46411133,7.46850586 L6.44665527,7.46850586 C5.54766846,7.46850586 4.96624756,6.84965514 4.96624756,6.07621764 C4.96624756,5.28532409 5.56546023,4.68359375 6.48190305,4.68359375 C7.39834597,4.68359375 7.96231081,5.28532409 7.97976687,6.07621764 C7.97976687,6.84965514 7.39834597,7.46850586 6.46411133,7.46850586 Z M17.4634399,16.6289062 L14.7847748,16.6289062 L14.7847748,12.3170929 C14.7847748,11.2334747 14.3968811,10.4944458 13.4275665,10.4944458 C12.6875305,10.4944458 12.2467651,10.9929505 12.05307,11.4741669 C11.9822388,11.6463776 11.9649506,11.8870697 11.9649506,12.1279297 L11.9649506,16.6289062 L9.28611754,16.6289062 C9.28611754,16.6289062 9.32119753,9.32522585 9.28611754,8.56907653 L11.9649506,8.56907653 L11.9649506,9.71026611 C12.3209534,9.16107178 12.9579315,8.37991335 14.3792572,8.37991335 C16.1418152,8.37991335 17.4634399,9.53184508 17.4634399,12.0074157 L17.4634399,16.6289062 Z" id="Shape"></path>
                    </g>
                </g>
            </g>
        </g>
    </g>
</svg>