<?xml version="1.0" encoding="utf-8"?>
<!-- Generator: Adobe Illustrator 16.0.0, SVG Export Plug-In . SVG Version: 6.00 Build 0)  -->
<!DOCTYPE svg PUBLIC "-//W3C//DTD SVG 1.1//EN" "http://www.w3.org/Graphics/SVG/1.1/DTD/svg11.dtd">
<svg version="1.1" id="Layer_1" xmlns="http://www.w3.org/2000/svg" xmlns:xlink="http://www.w3.org/1999/xlink" x="0px" y="0px"
	 width="323px" height="94.667px" viewBox="0 0 323 94.667" enable-background="new 0 0 323 94.667" xml:space="preserve">
<path fill="#292663" d="M44.904,51.62v4.429h20.119v25.587c-2.881,1.559-5.967,2.727-9.257,3.506
	c-3.292,0.78-6.584,1.168-9.875,1.168c-5.924,0-11.293-1.024-16.107-3.075c-4.814-2.049-8.949-4.859-12.404-8.427
	c-3.456-3.567-6.11-7.729-7.961-12.486c-1.851-4.755-2.777-9.841-2.777-15.253c0-5.494,1.049-10.682,3.147-15.562
	c2.098-4.878,4.956-9.144,8.578-12.794c3.62-3.648,7.816-6.52,12.589-8.611c4.771-2.091,9.874-3.137,15.305-3.137
	c3.703,0,7.384,0.492,11.046,1.476c3.661,0.984,6.974,2.337,9.936,4.06l2.592-4.182c-3.375-1.968-7.078-3.485-11.108-4.552
	c-4.033-1.065-8.146-1.599-12.343-1.599c-6.171,0-11.972,1.149-17.403,3.444c-5.431,2.297-10.183,5.474-14.256,9.534
	s-7.304,8.838-9.689,14.332c-2.388,5.495-3.58,11.4-3.58,17.714c0,6.151,1.049,11.892,3.147,17.222
	c2.098,5.332,5.101,9.964,9.01,13.901c3.907,3.937,8.597,7.054,14.071,9.349c5.471,2.297,11.621,3.445,18.452,3.445
	c4.443,0,8.681-0.554,12.713-1.661c4.031-1.107,7.693-2.603,10.985-4.49V51.62H44.904z"/>
<path fill="#26A8E0" d="M52.213,67.785c-2.375,0.834-4.881,1.25-7.52,1.25c-3.166,0-6.091-0.569-8.772-1.709
	c-2.684-1.138-5.013-2.695-6.992-4.667c-1.979-1.972-3.542-4.293-4.683-6.968c-1.144-2.673-1.715-5.543-1.715-8.612
	c0-3.067,0.571-5.96,1.715-8.678c1.142-2.716,2.704-5.062,4.683-7.034c1.979-1.972,4.308-3.527,6.992-4.667
	c2.682-1.138,5.606-1.709,8.772-1.709c2.639,0,5.145,0.44,7.52,1.315c2.375,0.877,4.485,2.061,6.332,3.55
	c0.528-0.7,1.055-1.314,1.583-1.84s1.01-1.095,1.451-1.709c-2.288-1.752-4.86-3.155-7.717-4.207
	c-2.859-1.052-5.916-1.578-9.168-1.578c-3.694,0-7.169,0.703-10.421,2.104c-3.255,1.403-6.091,3.287-8.509,5.653
	c-2.42,2.367-4.31,5.173-5.672,8.415c-1.365,3.244-2.045,6.706-2.045,10.387c0,3.681,0.68,7.122,2.045,10.321
	c1.362,3.201,3.252,5.982,5.672,8.349c2.418,2.367,5.254,4.252,8.509,5.653c3.252,1.401,6.728,2.104,10.421,2.104
	c3.253,0,6.287-0.526,9.103-1.578c2.813-1.052,5.363-2.453,7.651-4.207c-0.441-0.612-0.903-1.204-1.385-1.775
	c-0.484-0.569-0.989-1.118-1.517-1.644C56.699,65.792,54.588,66.953,52.213,67.785z"/>
<path fill="#292663" d="M102.363,27.977v5.503h7.084v6.438c-0.938,0.312-1.928,0.528-2.969,0.649
	c-1.042,0.122-1.911,0.182-2.604,0.182c-1.945,0-3.733-0.354-5.366-1.064c-1.633-0.709-3.039-1.662-4.219-2.855
	c-1.181-1.194-2.102-2.57-2.761-4.127c-0.66-1.558-0.99-3.201-0.99-4.932c0-1.903,0.373-3.694,1.12-5.374
	c0.746-1.679,1.745-3.124,2.995-4.335c1.25-1.211,2.683-2.171,4.297-2.881c1.615-0.709,3.308-1.064,5.079-1.064
	c0.625,0,1.293,0.043,2.005,0.129c0.711,0.087,1.433,0.217,2.162,0.39c0.729,0.173,1.433,0.372,2.11,0.597
	c0.677,0.226,1.258,0.494,1.745,0.805l3.125-5.192c-0.729-0.449-1.546-0.839-2.448-1.168c-0.904-0.328-1.841-0.614-2.813-0.856
	c-0.973-0.242-1.954-0.423-2.943-0.545c-0.99-0.121-1.936-0.182-2.839-0.182c-2.675,0-5.218,0.494-7.631,1.48
	c-2.414,0.986-4.532,2.371-6.355,4.153c-1.823,1.783-3.274,3.912-4.35,6.386c-1.077,2.475-1.615,5.218-1.615,8.229
	c0,2.666,0.451,5.123,1.354,7.373c0.903,2.25,2.205,4.188,3.907,5.814c1.701,1.627,3.758,2.907,6.172,3.842
	c2.414,0.935,5.113,1.402,8.101,1.402c2.153,0,4.262-0.233,6.329-0.701c2.066-0.467,3.829-1.133,5.288-1.999V27.977H102.363z"/>
<path fill="#292663" d="M135.597,23.719c-0.556,0-1.233,0.147-2.031,0.441c-0.799,0.294-1.607,0.709-2.422,1.246
	c-0.816,0.537-1.606,1.186-2.37,1.947c-0.764,0.762-1.373,1.627-1.823,2.596c-0.07-0.969-0.148-1.843-0.234-2.622
	c-0.087-0.779-0.165-1.792-0.234-3.037h-4.376v22.065h5.001V36.127c0-1.003,0.208-1.877,0.625-2.622
	c0.417-0.744,0.964-1.367,1.641-1.869c0.677-0.501,1.458-0.874,2.344-1.116c0.885-0.242,1.814-0.363,2.787-0.363L135.597,23.719z"/>
<path fill="#292663" d="M139.321,39.892c0.573,1.368,1.38,2.57,2.422,3.608c1.042,1.038,2.274,1.869,3.699,2.492
	c1.423,0.623,2.986,0.935,4.688,0.935c1.076,0,2.023-0.113,2.839-0.337c0.815-0.226,1.519-0.493,2.109-0.805
	c0.59-0.312,1.059-0.631,1.406-0.96c0.347-0.329,0.59-0.579,0.729-0.753c0,0.07-0.009,0.182-0.026,0.337
	c-0.018,0.156-0.026,0.321-0.026,0.493v1.454h5.053V24.291h-4.845l-0.208,2.647c-0.104-0.208-0.33-0.493-0.677-0.856
	c-0.347-0.364-0.825-0.718-1.432-1.064c-0.608-0.346-1.329-0.649-2.162-0.909c-0.833-0.259-1.771-0.389-2.813-0.389
	c-1.563,0-3.047,0.32-4.454,0.96c-1.406,0.641-2.64,1.498-3.698,2.57c-1.06,1.073-1.901,2.328-2.526,3.764
	c-0.625,1.437-0.938,2.951-0.938,4.543C138.461,37.08,138.748,38.524,139.321,39.892z M144.009,32.623
	c0.33-0.813,0.798-1.522,1.407-2.128c0.607-0.605,1.328-1.073,2.162-1.402c0.833-0.329,1.753-0.493,2.761-0.493
	c1.007,0,1.927,0.173,2.761,0.519c0.833,0.346,1.554,0.813,2.162,1.402c0.607,0.589,1.076,1.29,1.406,2.103
	c0.33,0.813,0.495,1.688,0.495,2.622c0,0.934-0.165,1.817-0.495,2.647c-0.331,0.831-0.799,1.558-1.406,2.181
	c-0.608,0.623-1.329,1.108-2.162,1.454c-0.833,0.347-1.754,0.519-2.761,0.519c-1.008,0-1.927-0.172-2.761-0.519
	c-0.833-0.345-1.555-0.822-2.162-1.428c-0.608-0.605-1.077-1.324-1.407-2.154c-0.331-0.831-0.495-1.73-0.495-2.7
	C143.514,34.311,143.679,33.437,144.009,32.623z"/>
<path fill="#292663" d="M179.327,24.42c-1.164-0.432-2.284-0.649-3.36-0.649c-0.799,0-1.615,0.113-2.448,0.337
	c-0.834,0.226-1.607,0.597-2.318,1.116c-0.712,0.52-1.294,1.194-1.745,2.025c-0.452,0.831-0.677,1.869-0.677,3.115
	s0.234,2.276,0.704,3.089c0.469,0.814,1.042,1.48,1.719,1.999s1.424,0.952,2.24,1.298c0.815,0.346,1.563,0.667,2.24,0.96
	c0.677,0.294,1.25,0.615,1.719,0.96c0.469,0.347,0.704,0.797,0.704,1.35c0,0.554-0.235,1.021-0.704,1.402s-1.138,0.571-2.005,0.571
	c-0.556,0-1.094-0.086-1.615-0.26c-0.521-0.172-0.973-0.363-1.354-0.571c-0.382-0.208-0.686-0.39-0.912-0.545
	c-0.226-0.156-0.338-0.215-0.338-0.182c-0.452,0.519-0.833,0.97-1.146,1.35c-0.313,0.381-0.643,0.779-0.99,1.194
	c-0.348,0.416-0.643,0.762-0.886,1.039c0.764,0.9,1.814,1.592,3.151,2.077s2.717,0.727,4.142,0.727c1.18,0,2.24-0.173,3.177-0.519
	c0.938-0.345,1.745-0.813,2.422-1.402c0.677-0.588,1.198-1.298,1.563-2.128c0.364-0.831,0.547-1.748,0.547-2.751
	c0-1.143-0.234-2.103-0.703-2.881c-0.469-0.779-1.042-1.428-1.719-1.947c-0.677-0.519-1.424-0.952-2.24-1.298
	c-0.816-0.346-1.563-0.683-2.24-1.012c-0.677-0.329-1.25-0.692-1.719-1.09c-0.469-0.397-0.703-0.891-0.703-1.48
	c0-0.692,0.269-1.15,0.807-1.375c0.538-0.225,1.05-0.337,1.537-0.337c0.451,0,0.894,0.061,1.329,0.182
	c0.434,0.122,0.815,0.251,1.146,0.389c0.33,0.139,0.668,0.33,1.016,0.571c0.382-0.519,0.711-0.952,0.99-1.298
	c0.277-0.346,0.564-0.718,0.859-1.116c0.295-0.397,0.547-0.753,0.755-1.064l0,0l0,0l0,0C181.471,25.467,180.49,24.854,179.327,24.42
	z"/>
<path fill="#292663" d="M207.039,37.919c-0.295,0.813-0.712,1.531-1.25,2.154c-0.539,0.623-1.207,1.108-2.005,1.454
	c-0.799,0.347-1.702,0.519-2.708,0.519c-1.008,0-1.928-0.172-2.761-0.519c-0.833-0.345-1.554-0.822-2.162-1.428
	c-0.608-0.605-1.085-1.324-1.433-2.154c-0.347-0.831-0.521-1.73-0.521-2.7c0-0.935,0.173-1.809,0.521-2.622
	c0.347-0.813,0.825-1.522,1.433-2.128c0.607-0.605,1.329-1.073,2.162-1.402c0.833-0.329,1.753-0.493,2.761-0.493
	c2.014,0,3.585,0.632,4.714,1.895c1.128,1.264,1.693,2.864,1.693,4.802C207.482,36.231,207.333,37.106,207.039,37.919z
	 M212.066,30.546c-0.556-1.436-1.329-2.665-2.318-3.686c-0.99-1.021-2.18-1.799-3.568-2.336c-1.39-0.536-2.935-0.805-4.636-0.805
	c-0.938,0-1.797,0.113-2.579,0.337c-0.781,0.226-1.484,0.502-2.11,0.831c-0.625,0.33-1.155,0.693-1.588,1.09
	c-0.435,0.398-0.791,0.771-1.068,1.116c0-0.415-0.035-0.865-0.104-1.35c-0.07-0.484-0.104-0.969-0.104-1.454h-4.792v32.656h5.001
	V44.746c0-0.172-0.009-0.319-0.026-0.441c-0.018-0.121-0.026-0.251-0.026-0.39c0.486,0.727,1.38,1.411,2.683,2.051
	s2.804,0.96,4.506,0.96c1.701,0,3.264-0.286,4.688-0.856c1.424-0.571,2.648-1.376,3.673-2.414c1.024-1.039,1.814-2.259,2.37-3.66
	c0.555-1.402,0.833-2.934,0.833-4.595C212.899,33.602,212.621,31.983,212.066,30.546z"/>
<path fill="#26A8E0" d="M245.508,37.789c-0.035,0.104-0.304,0.294-0.807,0.571c-0.504,0.277-1.155,0.554-1.954,0.831
	c-0.799,0.278-1.719,0.528-2.761,0.753c-1.042,0.226-2.119,0.337-3.229,0.337c-1.945,0-3.716-0.372-5.313-1.116
	c-1.598-0.744-2.978-1.721-4.141-2.933c-1.164-1.211-2.066-2.604-2.709-4.179c-0.643-1.575-0.963-3.193-0.963-4.854
	c0-1.695,0.338-3.34,1.016-4.932c0.677-1.592,1.615-2.985,2.813-4.179c1.198-1.194,2.622-2.155,4.271-2.882
	c1.649-0.727,3.446-1.09,5.391-1.09c0.521,0,1.111,0.035,1.771,0.104c0.659,0.07,1.311,0.165,1.953,0.286
	c0.642,0.122,1.258,0.286,1.85,0.493c0.59,0.208,1.094,0.45,1.51,0.727c0.417-0.727,0.738-1.298,0.964-1.713
	c0.226-0.416,0.434-0.787,0.625-1.116c0.19-0.329,0.373-0.649,0.547-0.96s0.417-0.709,0.729-1.194
	c-0.313-0.345-0.825-0.675-1.537-0.986c-0.712-0.312-1.537-0.588-2.475-0.831c-0.938-0.242-1.936-0.441-2.995-0.597
	c-1.06-0.156-2.11-0.234-3.151-0.234c-2.709,0-5.253,0.485-7.631,1.454c-2.379,0.969-4.463,2.328-6.251,4.075
	c-1.789,1.749-3.204,3.825-4.246,6.23c-1.042,2.406-1.563,5.028-1.563,7.865c0,2.562,0.434,5.002,1.302,7.32
	c0.868,2.319,2.118,4.344,3.75,6.075c1.632,1.731,3.628,3.106,5.99,4.127c2.361,1.021,5.035,1.532,8.022,1.532
	c1.458,0,2.83-0.113,4.115-0.337c1.284-0.225,2.439-0.501,3.464-0.831c1.024-0.329,1.909-0.683,2.657-1.064
	c0.746-0.38,1.328-0.709,1.745-0.986L245.508,37.789z"/>
<path fill="#26A8E0" d="M252.177,40.047c0.625,1.437,1.467,2.666,2.526,3.686c1.059,1.021,2.3,1.809,3.725,2.362
	c1.423,0.553,2.951,0.831,4.584,0.831c1.701,0,3.264-0.303,4.688-0.909c1.424-0.605,2.657-1.436,3.699-2.492
	c1.042-1.056,1.849-2.292,2.422-3.712c0.573-1.418,0.859-2.924,0.859-4.517c0-1.592-0.295-3.089-0.886-4.491
	c-0.591-1.402-1.398-2.622-2.422-3.66c-1.025-1.039-2.249-1.86-3.673-2.466c-1.424-0.605-2.969-0.909-4.636-0.909
	c-1.633,0-3.169,0.304-4.61,0.909c-1.441,0.606-2.701,1.428-3.776,2.466c-1.077,1.038-1.919,2.258-2.526,3.66
	c-0.608,1.401-0.912,2.899-0.912,4.491C251.239,37.028,251.552,38.611,252.177,40.047z M256.708,32.727
	c0.347-0.813,0.825-1.523,1.433-2.129c0.607-0.605,1.319-1.09,2.136-1.454c0.815-0.363,1.693-0.545,2.631-0.545
	c0.938,0,1.814,0.182,2.63,0.545c0.815,0.363,1.528,0.849,2.136,1.454c0.607,0.606,1.094,1.316,1.458,2.129
	c0.365,0.813,0.547,1.687,0.547,2.622s-0.182,1.809-0.547,2.622c-0.365,0.813-0.851,1.523-1.458,2.128
	c-0.608,0.606-1.32,1.083-2.136,1.428c-0.816,0.347-1.693,0.519-2.63,0.519c-0.938,0-1.815-0.172-2.631-0.519
	c-0.816-0.345-1.528-0.822-2.136-1.428c-0.608-0.605-1.086-1.315-1.433-2.128c-0.347-0.813-0.521-1.688-0.521-2.622
	S256.361,33.541,256.708,32.727z"/>
<path fill="#26A8E0" d="M294.214,23.719c-0.556,0-1.233,0.147-2.031,0.441c-0.799,0.294-1.607,0.709-2.422,1.246
	c-0.816,0.537-1.607,1.186-2.37,1.947c-0.765,0.762-1.373,1.627-1.823,2.596c-0.07-0.969-0.148-1.843-0.234-2.622
	c-0.087-0.779-0.166-1.792-0.234-3.037h-4.376v22.065h5.001V36.127c0-1.003,0.208-1.877,0.625-2.622
	c0.417-0.744,0.964-1.367,1.641-1.869c0.677-0.501,1.458-0.874,2.344-1.116c0.886-0.242,1.814-0.363,2.787-0.363L294.214,23.719z"/>
<path fill="#26A8E0" d="M298.901,46.355h5.001V35.712c0-1.004,0.165-1.938,0.495-2.804c0.33-0.865,0.798-1.609,1.406-2.232
	c0.607-0.623,1.336-1.116,2.188-1.48c0.851-0.363,1.779-0.545,2.787-0.545c1.458,0.07,2.535,0.493,3.23,1.272
	c0.694,0.779,1.076,1.705,1.146,2.778v13.654h4.949V30.365c-0.07-1.973-0.773-3.573-2.11-4.802
	c-1.337-1.229-3.135-1.843-5.392-1.843c-2.188,0-4.011,0.571-5.469,1.713c-1.459,1.142-2.588,2.647-3.386,4.517
	c-0.07-0.969-0.148-1.843-0.234-2.622c-0.087-0.779-0.165-1.792-0.234-3.037h-4.376V46.355z"/>
<path fill="#676767" d="M138.775,68.74c-0.846-0.314-1.661-0.472-2.443-0.472c-0.581,0-1.174,0.082-1.78,0.246
	c-0.606,0.164-1.168,0.434-1.686,0.812s-0.941,0.868-1.269,1.472c-0.329,0.604-0.493,1.359-0.493,2.265
	c0,0.906,0.17,1.655,0.512,2.246c0.341,0.591,0.757,1.076,1.25,1.453c0.493,0.377,1.035,0.692,1.629,0.944
	c0.593,0.252,1.136,0.485,1.628,0.698c0.493,0.214,0.909,0.447,1.25,0.698c0.341,0.252,0.511,0.58,0.511,0.981
	c0,0.403-0.17,0.743-0.511,1.02c-0.341,0.277-0.827,0.415-1.458,0.415c-0.404,0-0.795-0.063-1.174-0.188s-0.707-0.264-0.985-0.416
	c-0.278-0.151-0.499-0.283-0.663-0.396c-0.165-0.113-0.246-0.157-0.246-0.132c-0.329,0.377-0.606,0.705-0.833,0.981
	c-0.227,0.277-0.467,0.566-0.72,0.868c-0.252,0.302-0.467,0.554-0.644,0.755c0.555,0.655,1.319,1.158,2.291,1.51
	c0.972,0.352,1.976,0.528,3.011,0.528c0.858,0,1.629-0.126,2.311-0.377s1.269-0.591,1.761-1.019
	c0.492-0.428,0.871-0.944,1.136-1.548s0.397-1.271,0.397-2.001c0-0.83-0.17-1.529-0.511-2.095c-0.341-0.566-0.757-1.038-1.25-1.416
	c-0.492-0.377-1.036-0.692-1.628-0.944c-0.594-0.251-1.136-0.497-1.628-0.736c-0.493-0.239-0.909-0.503-1.25-0.792
	c-0.341-0.289-0.511-0.647-0.511-1.076c0-0.503,0.195-0.836,0.587-1c0.391-0.164,0.763-0.246,1.117-0.246
	c0.328,0,0.65,0.044,0.966,0.132c0.315,0.088,0.593,0.183,0.833,0.283c0.24,0.101,0.486,0.239,0.738,0.415
	c0.278-0.377,0.517-0.692,0.72-0.944c0.202-0.251,0.41-0.522,0.625-0.812c0.214-0.289,0.397-0.547,0.549-0.774l0,0l0,0l0,0
	C140.334,69.501,139.621,69.055,138.775,68.74z"/>
<path fill="#676767" d="M145.611,80.102c0.455,1.044,1.067,1.938,1.837,2.68c0.77,0.743,1.672,1.315,2.708,1.718
	c1.035,0.402,2.146,0.604,3.333,0.604c1.237,0,2.373-0.221,3.409-0.661c1.035-0.44,1.932-1.044,2.689-1.812
	c0.758-0.768,1.345-1.667,1.761-2.699c0.417-1.032,0.625-2.126,0.625-3.284c0-1.157-0.215-2.246-0.644-3.265
	c-0.43-1.019-1.017-1.906-1.761-2.661c-0.745-0.755-1.635-1.353-2.67-1.793c-1.036-0.44-2.159-0.661-3.371-0.661
	c-1.187,0-2.304,0.221-3.352,0.661c-1.048,0.441-1.963,1.038-2.746,1.793c-0.783,0.755-1.396,1.642-1.837,2.661
	c-0.442,1.019-0.663,2.108-0.663,3.265C144.93,77.907,145.157,79.058,145.611,80.102z M148.907,74.779
	c0.252-0.591,0.6-1.107,1.042-1.547c0.441-0.44,0.959-0.793,1.553-1.057s1.231-0.396,1.913-0.396c0.682,0,1.319,0.132,1.913,0.396
	c0.593,0.264,1.111,0.617,1.553,1.057c0.441,0.44,0.795,0.957,1.061,1.547c0.265,0.592,0.397,1.227,0.397,1.907
	c0,0.679-0.132,1.315-0.397,1.906s-0.619,1.107-1.061,1.548c-0.442,0.44-0.96,0.787-1.553,1.038
	c-0.594,0.251-1.231,0.377-1.913,0.377c-0.682,0-1.319-0.125-1.913-0.377s-1.111-0.598-1.553-1.038
	c-0.442-0.44-0.79-0.957-1.042-1.548c-0.253-0.591-0.379-1.227-0.379-1.906C148.528,76.006,148.654,75.371,148.907,74.779z"/>
<path fill="#676767" d="M172.995,74.553c-0.404,0.919-0.72,1.661-0.947,2.227c-0.227,0.566-0.397,1-0.511,1.302
	s-0.208,0.566-0.284,0.793c-0.101-0.68-0.215-1.29-0.341-1.831c-0.126-0.541-0.316-1.164-0.568-1.869
	c-0.253-0.704-0.594-1.56-1.023-2.567c-0.43-1.006-0.985-2.327-1.667-3.963h-3.636l7.234,16.987
	c0.833-1.912,1.635-3.762,2.405-5.549c0.77-1.787,1.584-3.636,2.443-5.549c0.479,0.957,0.915,1.894,1.307,2.812
	c0.391,0.919,0.776,1.831,1.155,2.737c0.378,0.906,0.757,1.819,1.136,2.737c0.379,0.919,0.808,1.856,1.288,2.813l7.613-16.987
	h-3.636c-0.682,1.611-1.256,2.919-1.724,3.926c-0.467,1.007-0.852,1.863-1.155,2.567c-0.303,0.705-0.537,1.334-0.701,1.887
	c-0.165,0.554-0.297,1.17-0.398,1.85c-0.101-0.302-0.246-0.699-0.436-1.189s-0.449-1.132-0.776-1.925
	c-0.329-0.793-0.745-1.768-1.25-2.926c-0.505-1.157-1.136-2.554-1.894-4.19h-3.144l1.098,2.34
	C173.929,72.446,173.399,73.635,172.995,74.553z"/>
<path fill="#676767" d="M202.121,68.646h-2.727v3.246h2.727v12.797h3.598V71.892h4.205v-3.246h-4.205v-7.021h-3.598V68.646z"/>
<path fill="#676767" d="M212.915,80.102c0.455,1.044,1.066,1.938,1.837,2.68c0.77,0.743,1.672,1.315,2.708,1.718
	c1.035,0.402,2.146,0.604,3.333,0.604c1.237,0,2.374-0.221,3.409-0.661s1.932-1.044,2.689-1.812
	c0.757-0.768,1.345-1.667,1.761-2.699c0.417-1.032,0.625-2.126,0.625-3.284c0-1.157-0.215-2.246-0.644-3.265
	c-0.43-1.019-1.017-1.906-1.761-2.661c-0.745-0.755-1.635-1.353-2.67-1.793c-1.035-0.44-2.159-0.661-3.371-0.661
	c-1.187,0-2.305,0.221-3.352,0.661c-1.048,0.441-1.963,1.038-2.746,1.793c-0.783,0.755-1.396,1.642-1.837,2.661
	s-0.663,2.108-0.663,3.265C212.233,77.907,212.46,79.058,212.915,80.102z M216.21,74.779c0.252-0.591,0.599-1.107,1.042-1.547
	c0.441-0.44,0.959-0.793,1.553-1.057s1.231-0.396,1.913-0.396c0.682,0,1.319,0.132,1.913,0.396s1.111,0.617,1.553,1.057
	c0.441,0.44,0.795,0.957,1.061,1.547c0.265,0.592,0.397,1.227,0.397,1.907c0,0.679-0.132,1.315-0.397,1.906
	s-0.619,1.107-1.061,1.548c-0.442,0.44-0.96,0.787-1.553,1.038s-1.23,0.377-1.913,0.377c-0.682,0-1.319-0.125-1.913-0.377
	s-1.111-0.598-1.553-1.038c-0.442-0.44-0.79-0.957-1.042-1.548c-0.253-0.591-0.379-1.227-0.379-1.906
	C215.832,76.006,215.958,75.371,216.21,74.779z"/>
<path fill="#676767" d="M242.874,80.045c0.404,1.007,0.972,1.888,1.705,2.643c0.732,0.755,1.603,1.347,2.613,1.774
	c1.009,0.428,2.121,0.642,3.333,0.642c0.757,0,1.426-0.082,2.007-0.246c0.581-0.164,1.092-0.371,1.534-0.623s0.82-0.529,1.136-0.831
	c0.315-0.302,0.587-0.579,0.814-0.831c0,0.126-0.025,0.277-0.076,0.453c-0.051,0.176-0.076,0.377-0.076,0.604
	c-0.025,0.176-0.038,0.346-0.038,0.509c0,0.164,0,0.309,0,0.434c0,1.384-0.467,2.454-1.401,3.209
	c-0.935,0.755-2.184,1.132-3.75,1.132c-1.162,0-2.146-0.233-2.954-0.698c-0.809-0.466-1.566-1.026-2.272-1.68l-2.349,2.454
	c0.455,0.402,0.928,0.805,1.42,1.208c0.492,0.402,1.035,0.768,1.629,1.095c0.593,0.327,1.262,0.591,2.007,0.792
	c0.744,0.201,1.609,0.302,2.594,0.302c1.288,0,2.468-0.188,3.542-0.566c1.073-0.377,1.994-0.925,2.765-1.642
	c0.77-0.717,1.37-1.611,1.799-2.68c0.429-1.07,0.644-2.284,0.644-3.643V68.646h-3.484c0,0.353-0.025,0.692-0.076,1.019
	c-0.051,0.327-0.076,0.629-0.076,0.906c-0.051-0.05-0.196-0.201-0.436-0.453c-0.24-0.251-0.582-0.516-1.023-0.793
	c-0.442-0.276-0.991-0.528-1.647-0.755c-0.657-0.227-1.414-0.34-2.272-0.34c-1.136,0-2.203,0.214-3.2,0.642
	c-0.998,0.428-1.869,1.026-2.614,1.793s-1.332,1.674-1.761,2.718c-0.43,1.044-0.644,2.17-0.644,3.378
	C242.268,77.944,242.47,79.039,242.874,80.045z M246.264,74.704c0.24-0.591,0.581-1.107,1.023-1.548
	c0.441-0.44,0.966-0.78,1.572-1.019c0.606-0.239,1.274-0.359,2.007-0.359c0.732,0,1.407,0.126,2.026,0.377
	c0.618,0.252,1.148,0.592,1.591,1.02c0.441,0.428,0.782,0.938,1.022,1.529c0.24,0.591,0.36,1.227,0.36,1.906s-0.12,1.321-0.36,1.925
	c-0.24,0.604-0.581,1.132-1.022,1.585c-0.442,0.453-0.973,0.806-1.591,1.057c-0.619,0.251-1.294,0.377-2.026,0.377
	c-0.733,0-1.401-0.125-2.007-0.377s-1.13-0.598-1.572-1.038c-0.442-0.44-0.783-0.963-1.023-1.567c-0.24-0.604-0.36-1.258-0.36-1.963
	C245.904,75.931,246.023,75.295,246.264,74.704z"/>
<path fill="#676767" d="M274.727,68.23c-0.404,0-0.897,0.107-1.478,0.321c-0.581,0.214-1.168,0.516-1.761,0.906
	s-1.168,0.862-1.723,1.416c-0.556,0.554-0.998,1.183-1.326,1.887c-0.051-0.704-0.107-1.34-0.17-1.906
	c-0.063-0.566-0.12-1.302-0.17-2.208h-3.182v16.043h3.636v-7.437c0-0.729,0.151-1.365,0.455-1.906
	c0.303-0.541,0.701-0.994,1.193-1.359c0.493-0.365,1.061-0.635,1.705-0.812c0.644-0.176,1.319-0.264,2.026-0.264L274.727,68.23z"/>
<path fill="#676767" d="M277.492,80.102c0.454,1.044,1.066,1.938,1.837,2.68c0.77,0.743,1.672,1.315,2.708,1.718
	c1.035,0.402,2.146,0.604,3.333,0.604c1.237,0,2.373-0.221,3.409-0.661c1.035-0.44,1.932-1.044,2.689-1.812
	c0.758-0.768,1.345-1.667,1.761-2.699c0.417-1.032,0.625-2.126,0.625-3.284c0-1.157-0.215-2.246-0.644-3.265
	s-1.017-1.906-1.761-2.661c-0.745-0.755-1.635-1.353-2.67-1.793c-1.036-0.44-2.159-0.661-3.371-0.661
	c-1.187,0-2.304,0.221-3.352,0.661c-1.048,0.441-1.964,1.038-2.746,1.793c-0.783,0.755-1.396,1.642-1.837,2.661
	c-0.442,1.019-0.663,2.108-0.663,3.265C276.81,77.907,277.037,79.058,277.492,80.102z M280.787,74.779
	c0.252-0.591,0.6-1.107,1.042-1.547c0.441-0.44,0.959-0.793,1.553-1.057c0.593-0.264,1.231-0.396,1.913-0.396
	s1.319,0.132,1.913,0.396c0.593,0.264,1.111,0.617,1.553,1.057c0.441,0.44,0.795,0.957,1.061,1.547
	c0.265,0.592,0.398,1.227,0.398,1.907c0,0.679-0.133,1.315-0.398,1.906s-0.619,1.107-1.061,1.548
	c-0.442,0.44-0.96,0.787-1.553,1.038c-0.594,0.251-1.231,0.377-1.913,0.377s-1.32-0.125-1.913-0.377
	c-0.594-0.251-1.112-0.598-1.553-1.038c-0.442-0.44-0.79-0.957-1.042-1.548c-0.252-0.591-0.379-1.227-0.379-1.906
	C280.408,76.006,280.534,75.371,280.787,74.779z"/>
<path fill="#676767" d="M304.875,74.553c-0.404,0.919-0.719,1.661-0.947,2.227c-0.227,0.566-0.397,1-0.511,1.302
	s-0.208,0.566-0.284,0.793c-0.101-0.68-0.215-1.29-0.341-1.831c-0.126-0.541-0.316-1.164-0.568-1.869
	c-0.253-0.704-0.594-1.56-1.023-2.567c-0.43-1.006-0.984-2.327-1.667-3.963h-3.636l7.234,16.987
	c0.833-1.912,1.635-3.762,2.405-5.549c0.77-1.787,1.584-3.636,2.443-5.549c0.479,0.957,0.915,1.894,1.307,2.812
	c0.391,0.919,0.776,1.831,1.155,2.737c0.379,0.906,0.757,1.819,1.136,2.737c0.379,0.919,0.808,1.856,1.288,2.813l7.613-16.987
	h-3.636c-0.682,1.611-1.256,2.919-1.723,3.926c-0.468,1.007-0.853,1.863-1.155,2.567c-0.303,0.705-0.537,1.334-0.701,1.887
	c-0.165,0.554-0.297,1.17-0.398,1.85c-0.101-0.302-0.246-0.699-0.436-1.189c-0.189-0.491-0.448-1.132-0.776-1.925
	c-0.328-0.793-0.745-1.768-1.25-2.926c-0.505-1.157-1.136-2.554-1.894-4.19h-3.144l1.098,2.34
	C305.809,72.446,305.279,73.635,304.875,74.553z"/>
</svg>
