<?xml version="1.0" encoding="UTF-8"?>
<svg width="22px" height="22px" viewBox="0 0 22 22" version="1.1" xmlns="http://www.w3.org/2000/svg" xmlns:xlink="http://www.w3.org/1999/xlink">
    <title>Icon — Twitter</title>
    <g id="Layout" stroke="none" stroke-width="1" fill="none" fill-rule="evenodd">
        <g id="Layout-—-Home" transform="translate(-1372.000000, -11.000000)" fill="#FFFFFF" fill-rule="nonzero">
            <g id="Header-—-Secondary">
                <g id="Social" transform="translate(1342.000000, 11.000000)">
                    <g id="Icon-—-Twitter" transform="translate(30.000000, 0.000000)">
                        <path d="M11,0 C4.92579652,0 0,4.92579652 0,11 C0,17.0742035 4.92579652,22 11,22 C17.0742035,22 22,17.0742035 22,11 C22,4.92579652 17.0742035,0 11,0 Z M16.0224762,8.57662962 C16.0273437,8.68489076 16.0296936,8.79365541 16.0296936,8.90292356 C16.0296936,12.239212 13.4901733,16.0864258 8.84602357,16.0865936 L8.84619141,16.0865936 L8.84602357,16.0865936 C7.42016602,16.0865936 6.09333802,15.6686554 4.97598269,14.9524536 C5.17353822,14.9757843 5.37461852,14.9873657 5.57821653,14.9873657 C6.76119993,14.9873657 7.84985352,14.5838623 8.71409606,13.9066009 C7.60882568,13.8861237 6.67694092,13.1561585 6.35534668,12.1529388 C6.50926207,12.1824798 6.6675415,12.1985931 6.82984925,12.1985931 C7.06030273,12.1985931 7.2835388,12.1675415 7.495697,12.1096344 C6.34040834,11.8783417 5.47012331,10.8573303 5.47012331,9.63473509 C5.47012331,9.62332155 5.47012331,9.61308287 5.47045898,9.60250852 C5.81068421,9.79167174 6.1997528,9.90547181 6.6139984,9.91822816 C5.9360657,9.46588135 5.49043275,8.69261168 5.49043275,7.81661985 C5.49043275,7.35403445 5.61547852,6.9206543 5.83233643,6.54753112 C7.07742312,8.07527162 8.93817139,9.08000182 11.0365906,9.18557741 C10.9932861,9.00061035 10.9709625,8.80792236 10.9709625,8.60986328 C10.9709625,7.21606445 12.1017456,6.08528138 13.496048,6.08528138 C14.2223206,6.08528138 14.8782654,6.39227295 15.3390045,6.88305664 C15.9142151,6.76959229 16.4543457,6.55944824 16.942276,6.2702484 C16.7534485,6.85955811 16.353302,7.35403445 15.8319702,7.66673278 C16.3427277,7.60563659 16.829483,7.4701843 17.2818298,7.269104 C16.9439545,7.77549743 16.5154419,8.22029115 16.0224762,8.57662962 Z" id="Shape"></path>
                    </g>
                </g>
            </g>
        </g>
    </g>
</svg>